
<svg version="1.1" id="Layer_1" xmlns="http://www.w3.org/2000/svg" xmlns:xlink="http://www.w3.org/1999/xlink" x="0px" y="0px"
	 width="100%" viewBox="0 0 1561 162" enable-background="new 0 0 1561 162" xml:space="preserve">
<path fill="#FFF" opacity="1.000000" stroke="none" 
	d="
M1158.000000,163.000000 
	C772.000122,163.000000 386.500244,163.000000 1.000259,163.000000 
	C1.000172,109.000130 1.000172,55.000263 1.000086,1.000295 
	C521.333069,1.000196 1041.666138,1.000196 1561.999268,1.000098 
	C1561.999512,54.999699 1561.999512,108.999397 1561.999756,162.999542 
	C1427.500000,163.000000 1293.000000,163.000000 1158.000000,163.000000 
M117.224152,63.719872 
	C109.672089,75.160652 102.120026,86.601433 94.369713,98.342567 
	C93.696571,97.350487 93.325859,96.818748 92.969856,96.277344 
	C74.594223,68.331734 56.234035,40.375935 37.807983,12.463612 
	C36.765919,10.885058 35.228535,8.513879 33.846344,8.460444 
	C24.599892,8.102979 15.332982,8.274723 5.962279,8.274723 
	C5.962279,58.313915 5.962279,107.545769 5.962279,157.082611 
	C15.198458,157.082611 24.130106,157.082611 33.880463,157.082611 
	C33.880463,123.889214 33.880463,90.766235 33.880463,57.643265 
	C47.706562,76.364082 60.412140,95.279518 73.155365,114.169556 
	C76.504143,119.133644 78.964142,125.904602 83.663971,128.410553 
	C88.366699,130.918060 95.377556,129.406586 101.342804,129.065125 
	C103.377571,128.948654 106.036186,127.534157 107.176094,125.868484 
	C118.547768,109.251991 129.648849,92.450478 140.854202,75.719887 
	C145.078125,69.413193 149.374817,63.155247 153.638336,56.875084 
	C153.967346,56.952942 154.296356,57.030796 154.625366,57.108650 
	C154.625366,90.438347 154.625366,123.768051 154.625366,157.259598 
	C164.361130,157.259598 173.456360,157.259598 182.654510,157.259598 
	C182.654510,107.561646 182.654510,58.027946 182.654510,8.206098 
	C174.158096,8.206098 166.013443,8.020317 157.889160,8.344593 
	C156.000351,8.419986 153.494583,9.763717 152.434662,11.316833 
	C140.708038,28.499973 129.210693,45.839588 117.224152,63.719872 
M511.457092,80.491295 
	C511.457092,105.936272 511.457092,131.381256 511.457092,157.238846 
	C520.803833,157.238846 529.703796,157.238846 539.250610,157.238846 
	C539.250610,141.510132 539.250610,125.809853 539.250610,110.203766 
	C553.546509,110.203766 567.203674,110.101921 580.855347,110.327599 
	C582.640686,110.357117 584.862061,111.659950 586.096802,113.063347 
	C598.307068,126.940826 610.333801,140.979645 622.475464,154.917938 
	C623.505981,156.100922 624.973694,157.704117 626.267029,157.730988 
	C637.130127,157.956528 647.999939,157.859390 659.765564,157.859390 
	C644.956299,140.226959 630.874817,123.461121 616.676514,106.556175 
	C617.754639,106.079544 618.339844,105.752815 618.965637,105.553894 
	C655.020081,94.092438 657.300110,49.423668 642.126404,28.586437 
	C631.313782,13.738063 616.190369,8.309890 598.763672,8.074697 
	C577.446228,7.786994 556.121094,8.061598 534.799316,8.087264 
	C527.174377,8.096443 519.549438,8.088736 511.757690,8.088736 
	C511.757690,17.272457 511.757690,25.993202 511.757690,35.011345 
	C520.263489,35.011345 528.416260,35.002453 536.569031,35.013084 
	C557.557495,35.040455 578.547607,34.927517 599.533752,35.165150 
	C612.033447,35.306690 620.798096,42.369297 623.115112,53.431870 
	C626.565857,69.907227 616.091614,83.415833 598.960571,83.756813 
	C579.645935,84.141258 560.318481,83.890892 540.996643,83.884460 
	C540.406311,83.884270 539.816101,83.526161 539.601257,83.456551 
	C539.601257,73.035973 539.601257,62.960060 539.601257,53.446663 
	C530.173889,53.446663 520.921021,53.446663 511.451721,53.446663 
	C511.451721,62.553806 511.451721,71.023819 511.457092,80.491295 
M1089.232300,32.758587 
	C1091.382324,29.023993 1093.532349,25.289396 1095.660400,21.592831 
	C1095.335571,21.235043 1095.154785,20.916882 1094.881592,20.756456 
	C1093.881226,20.169161 1092.874878,19.581476 1091.826782,19.087452 
	C1070.352295,8.965381 1047.717529,4.306158 1024.026245,5.259328 
	C1011.816528,5.750567 999.896606,7.893960 988.922974,13.816681 
	C967.945251,25.138849 961.898499,56.657078 977.291321,74.862389 
	C983.366455,82.047607 991.513123,85.855881 1000.364380,87.933266 
	C1013.149963,90.934044 1026.120361,93.142334 1038.922852,96.077583 
	C1048.613647,98.299431 1058.564087,100.164803 1067.676270,103.935486 
	C1078.701172,108.497704 1078.979004,122.865196 1068.744751,129.147247 
	C1065.828003,130.937607 1062.446899,132.245514 1059.104004,133.020920 
	C1042.438477,136.886444 1025.901489,135.052353 1009.763489,130.384949 
	C999.651123,127.460312 989.954468,123.098099 979.713440,119.246307 
	C975.634094,125.574234 971.258362,132.362015 966.778564,139.311249 
	C985.556763,151.564285 1005.955261,158.080048 1027.842773,160.066269 
	C1044.591553,161.586182 1061.207642,160.848022 1076.950195,154.252121 
	C1094.797729,146.774170 1103.697266,132.490921 1103.065674,113.410095 
	C1102.502075,96.385094 1092.929810,83.732994 1074.438843,77.964836 
	C1061.948242,74.068459 1048.928955,71.863365 1036.139282,68.931335 
	C1025.940918,66.593384 1015.514954,64.978134 1005.590698,61.793579 
	C995.936707,58.695770 992.884888,47.324257 999.225159,39.379204 
	C1001.526733,36.495087 1005.446594,34.223724 1009.062500,33.184925 
	C1024.519043,28.744534 1040.135742,30.241653 1055.496826,33.777500 
	C1065.103638,35.988823 1074.444580,39.355480 1084.087646,42.258781 
	C1085.572388,39.541550 1087.243896,36.482544 1089.232300,32.758587 
M1513.211670,34.137093 
	C1521.902344,36.835007 1530.592896,39.532921 1539.777710,42.384266 
	C1543.511475,35.704639 1547.527710,28.519726 1551.658936,21.128838 
	C1550.254272,20.324814 1549.158081,19.605646 1547.987427,19.040915 
	C1526.694702,8.769270 1504.078979,4.776954 1480.622681,5.385977 
	C1469.244995,5.681388 1458.066528,7.624839 1447.736572,12.802861 
	C1431.578613,20.902172 1425.042969,34.447727 1425.710327,52.051151 
	C1426.363037,69.262634 1435.173340,80.641167 1451.182861,85.893143 
	C1461.731812,89.353752 1472.752686,91.390045 1483.584351,93.971115 
	C1496.356567,97.014610 1509.225464,99.684753 1521.907593,103.060921 
	C1528.129639,104.717354 1531.487671,109.548584 1531.594727,116.133316 
	C1531.698608,122.524910 1528.970825,127.440773 1523.087524,130.217834 
	C1520.550659,131.415283 1517.850586,132.393997 1515.122192,133.037857 
	C1499.162354,136.804291 1483.227295,135.581589 1467.685181,131.245514 
	C1456.591553,128.150589 1445.915283,123.559464 1434.727051,119.518288 
	C1430.759277,125.769249 1426.402222,132.633438 1421.905151,139.718201 
	C1435.565796,148.549728 1450.468506,154.481796 1466.474243,157.516785 
	C1488.011963,161.600769 1509.573853,162.516846 1530.622070,155.126617 
	C1548.725464,148.770370 1558.984619,133.762421 1558.864990,115.140671 
	C1558.752075,97.535141 1548.748291,84.047012 1530.082764,78.142914 
	C1519.017822,74.642982 1507.493408,72.585449 1496.159302,69.949593 
	C1484.991089,67.352287 1473.715698,65.163612 1462.655762,62.172646 
	C1456.299316,60.453659 1452.778931,55.681042 1452.719849,48.784187 
	C1452.659912,41.784988 1455.926392,36.718597 1462.567627,34.086258 
	C1465.021362,33.113644 1467.634766,32.424526 1470.238892,31.970131 
	C1484.428955,29.494120 1498.449707,31.004456 1513.211670,34.137093 
M1173.854248,22.341316 
	C1176.515869,17.994160 1179.177368,13.647005 1182.208618,8.696106 
	C1179.857788,9.057527 1178.061768,9.181050 1176.346191,9.619522 
	C1121.067505,23.747610 1106.175415,87.582596 1134.136841,127.348373 
	C1153.327393,154.640518 1180.651611,164.014450 1212.952148,158.941345 
	C1250.104614,153.106171 1277.905273,118.628159 1276.370972,81.298698 
	C1274.756104,42.011894 1244.568481,9.625510 1206.527954,6.500778 
	C1205.152344,6.387776 1202.963867,6.982236 1202.370850,7.974263 
	C1197.367798,16.342979 1192.648315,24.881247 1187.542114,33.901138 
	C1190.053833,33.534275 1191.921875,33.143448 1193.808594,33.003357 
	C1227.586914,30.495275 1253.170288,58.183620 1247.999390,91.624268 
	C1244.858154,111.939178 1229.921265,127.964943 1209.897705,132.503357 
	C1189.126343,137.211243 1169.056885,129.588715 1157.399048,112.277084 
	C1146.280273,95.765739 1145.843872,78.032097 1153.666504,60.413013 
	C1159.382935,47.537491 1166.809570,35.421223 1173.854248,22.341316 
M312.197388,92.311333 
	C314.115540,96.125198 316.033691,99.939064 318.315155,104.475250 
	C299.040527,104.475250 280.487274,104.475250 260.762878,104.475250 
	C267.638184,112.743134 273.619049,120.240990 279.998352,127.382973 
	C281.514099,129.079926 284.347595,130.452927 286.602997,130.495682 
	C299.761444,130.745087 312.929626,130.647141 326.091125,130.444885 
	C329.287292,130.395752 331.099731,131.111267 332.538818,134.299377 
	C335.751099,141.415909 339.505676,148.293549 343.215546,155.173492 
	C343.797577,156.252869 345.289154,157.515411 346.384338,157.538315 
	C355.453491,157.727951 364.528320,157.645676 374.321930,157.645676 
	C372.339874,153.602768 370.688416,150.207275 369.014038,146.823105 
	C346.751892,101.827545 324.456024,56.848579 302.295532,11.803025 
	C300.924225,9.015618 299.485809,7.887647 296.333496,8.012660 
	C289.344971,8.289808 282.331177,8.347615 275.344452,8.071115 
	C271.986847,7.938240 270.365570,9.112401 268.921600,12.062040 
	C250.205658,50.294037 231.347824,88.456528 212.556259,126.651550 
	C207.659912,136.603699 202.868561,146.607529 197.628967,157.412521 
	C206.947388,157.412521 215.402191,157.285156 223.849258,157.484833 
	C226.631195,157.550568 227.874695,156.581833 229.064453,154.118805 
	C246.857513,117.283562 264.773804,80.507858 282.671936,43.723415 
	C283.372894,42.282829 284.181763,40.894779 285.515594,38.411087 
	C294.657379,56.831032 303.289642,74.224350 312.197388,92.311333 
M785.939392,35.556240 
	C779.439575,27.321005 772.976807,19.055889 766.398804,10.883585 
	C765.438293,9.690329 763.943787,8.136642 762.668762,8.110876 
	C751.773010,7.890688 740.870911,7.984692 728.874207,7.984692 
	C749.070190,33.000618 768.473450,57.034550 787.949280,81.158371 
	C767.091431,106.619133 746.514404,131.737015 725.139709,157.828629 
	C736.543274,157.828629 746.359070,158.024063 756.156067,157.681305 
	C758.403137,157.602692 761.274780,156.235703 762.688354,154.505295 
	C773.749817,140.965500 784.501221,127.172928 795.403748,113.502609 
	C798.897400,109.122017 802.557556,104.874275 806.425232,100.224709 
	C818.801575,115.324265 831.542175,129.486511 842.603210,144.857407 
	C849.763245,154.807266 857.550232,159.695374 869.828796,157.796524 
	C875.389648,156.936554 881.193970,157.650635 887.485962,157.650635 
	C866.431396,131.513031 846.002747,106.152412 825.494568,80.693100 
	C845.042236,56.629700 864.202759,33.042938 884.435425,8.136243 
	C873.321167,8.136243 863.697815,7.937220 854.094238,8.284613 
	C851.861572,8.365376 849.044250,9.760997 847.605286,11.480117 
	C838.092224,22.845184 828.912415,34.488445 819.559143,45.988331 
	C815.375732,51.131870 811.042236,56.153297 806.521912,61.533550 
	C799.590881,52.796089 792.978271,44.460030 785.939392,35.556240 
M436.981506,96.500000 
	C436.981506,76.083473 436.981506,55.666954 436.981506,34.854240 
	C455.219849,34.854240 472.945923,34.854240 490.596222,34.854240 
	C490.596222,25.734280 490.596222,17.019701 490.596222,8.505436 
	C445.499207,8.505436 400.802277,8.505436 356.176208,8.505436 
	C356.176208,17.543425 356.176208,26.120197 356.176208,35.137077 
	C374.025726,35.137077 391.581726,35.137077 409.488159,35.137077 
	C409.488159,76.154396 409.488159,116.723610 409.488159,157.537720 
	C418.752380,157.537720 427.654419,157.537720 436.478821,157.537720 
	C436.692963,157.029007 436.923950,156.736115 436.924408,156.442841 
	C436.955322,136.795242 436.967682,117.147621 436.981506,96.500000 
M1399.487305,130.793533 
	C1380.663452,130.636780 1361.839722,130.445663 1343.015503,130.334061 
	C1327.749634,130.243561 1327.168579,129.891876 1327.091675,114.302437 
	C1326.927246,80.985291 1326.976562,47.667091 1326.938843,14.349322 
	C1326.936890,12.574432 1326.938599,10.799539 1326.938599,9.080296 
	C1317.472046,9.080296 1308.582764,9.080296 1299.453857,9.080296 
	C1299.453857,25.749435 1299.409180,42.051041 1299.464722,58.352299 
	C1299.542847,81.338158 1299.493652,104.327293 1299.896118,127.308060 
	C1300.115723,139.838379 1306.645020,149.068787 1317.997192,153.737305 
	C1324.266602,156.315567 1331.520508,157.403534 1338.359985,157.526398 
	C1361.340942,157.939163 1384.334839,157.619720 1407.323853,157.567871 
	C1408.600586,157.564987 1409.877075,157.448334 1411.465576,157.369064 
	C1411.465576,148.451004 1411.465576,139.875839 1411.465576,130.798035 
	C1407.726929,130.798035 1404.103271,130.798035 1399.487305,130.793533 
M678.746765,74.499580 
	C678.746765,102.073456 678.746765,129.647339 678.746765,157.478638 
	C688.096252,157.478638 696.842346,157.478638 705.903625,157.478638 
	C705.903625,107.826698 705.903625,58.326077 705.903625,8.762117 
	C696.759399,8.762117 687.887451,8.762117 678.753418,8.762117 
	C678.753418,30.597631 678.753418,52.048607 678.746765,74.499580 
z"/>
<path fill="#000" opacity="1.000000" stroke="none" 
	d="
M117.437737,63.428368 
	C129.210693,45.839588 140.708038,28.499973 152.434662,11.316833 
	C153.494583,9.763717 156.000351,8.419986 157.889160,8.344593 
	C166.013443,8.020317 174.158096,8.206098 182.654510,8.206098 
	C182.654510,58.027946 182.654510,107.561646 182.654510,157.259598 
	C173.456360,157.259598 164.361130,157.259598 154.625366,157.259598 
	C154.625366,123.768051 154.625366,90.438347 154.625366,57.108650 
	C154.296356,57.030796 153.967346,56.952942 153.638336,56.875084 
	C149.374817,63.155247 145.078125,69.413193 140.854202,75.719887 
	C129.648849,92.450478 118.547768,109.251991 107.176094,125.868484 
	C106.036186,127.534157 103.377571,128.948654 101.342804,129.065125 
	C95.377556,129.406586 88.366699,130.918060 83.663971,128.410553 
	C78.964142,125.904602 76.504143,119.133644 73.155365,114.169556 
	C60.412140,95.279518 47.706562,76.364082 33.880463,57.643265 
	C33.880463,90.766235 33.880463,123.889214 33.880463,157.082611 
	C24.130106,157.082611 15.198458,157.082611 5.962279,157.082611 
	C5.962279,107.545769 5.962279,58.313915 5.962279,8.274723 
	C15.332982,8.274723 24.599892,8.102979 33.846344,8.460444 
	C35.228535,8.513879 36.765919,10.885058 37.807983,12.463612 
	C56.234035,40.375935 74.594223,68.331734 92.969856,96.277344 
	C93.325859,96.818748 93.696571,97.350487 94.369713,98.342567 
	C102.120026,86.601433 109.672089,75.160652 117.437737,63.428368 
z"/>
<path fill="#000" opacity="1.000000" stroke="none" 
	d="
M511.454407,79.992569 
	C511.451721,71.023819 511.451721,62.553806 511.451721,53.446663 
	C520.921021,53.446663 530.173889,53.446663 539.601257,53.446663 
	C539.601257,62.960060 539.601257,73.035973 539.601257,83.456551 
	C539.816101,83.526161 540.406311,83.884270 540.996643,83.884460 
	C560.318481,83.890892 579.645935,84.141258 598.960571,83.756813 
	C616.091614,83.415833 626.565857,69.907227 623.115112,53.431870 
	C620.798096,42.369297 612.033447,35.306690 599.533752,35.165150 
	C578.547607,34.927517 557.557495,35.040455 536.569031,35.013084 
	C528.416260,35.002453 520.263489,35.011345 511.757690,35.011345 
	C511.757690,25.993202 511.757690,17.272457 511.757690,8.088736 
	C519.549438,8.088736 527.174377,8.096443 534.799316,8.087264 
	C556.121094,8.061598 577.446228,7.786994 598.763672,8.074697 
	C616.190369,8.309890 631.313782,13.738063 642.126404,28.586437 
	C657.300110,49.423668 655.020081,94.092438 618.965637,105.553894 
	C618.339844,105.752815 617.754639,106.079544 616.676514,106.556175 
	C630.874817,123.461121 644.956299,140.226959 659.765564,157.859390 
	C647.999939,157.859390 637.130127,157.956528 626.267029,157.730988 
	C624.973694,157.704117 623.505981,156.100922 622.475464,154.917938 
	C610.333801,140.979645 598.307068,126.940826 586.096802,113.063347 
	C584.862061,111.659950 582.640686,110.357117 580.855347,110.327599 
	C567.203674,110.101921 553.546509,110.203766 539.250610,110.203766 
	C539.250610,125.809853 539.250610,141.510132 539.250610,157.238846 
	C529.703796,157.238846 520.803833,157.238846 511.457092,157.238846 
	C511.457092,131.381256 511.457092,105.936272 511.454407,79.992569 
z"/>
<path fill="#000" opacity="1.000000" stroke="none" 
	d="
M1089.073730,33.091064 
	C1087.243896,36.482544 1085.572388,39.541550 1084.087646,42.258781 
	C1074.444580,39.355480 1065.103638,35.988823 1055.496826,33.777500 
	C1040.135742,30.241653 1024.519043,28.744534 1009.062500,33.184925 
	C1005.446594,34.223724 1001.526733,36.495087 999.225159,39.379204 
	C992.884888,47.324257 995.936707,58.695770 1005.590698,61.793579 
	C1015.514954,64.978134 1025.940918,66.593384 1036.139282,68.931335 
	C1048.928955,71.863365 1061.948242,74.068459 1074.438843,77.964836 
	C1092.929810,83.732994 1102.502075,96.385094 1103.065674,113.410095 
	C1103.697266,132.490921 1094.797729,146.774170 1076.950195,154.252121 
	C1061.207642,160.848022 1044.591553,161.586182 1027.842773,160.066269 
	C1005.955261,158.080048 985.556763,151.564285 966.778564,139.311249 
	C971.258362,132.362015 975.634094,125.574234 979.713440,119.246307 
	C989.954468,123.098099 999.651123,127.460312 1009.763489,130.384949 
	C1025.901489,135.052353 1042.438477,136.886444 1059.104004,133.020920 
	C1062.446899,132.245514 1065.828003,130.937607 1068.744751,129.147247 
	C1078.979004,122.865196 1078.701172,108.497704 1067.676270,103.935486 
	C1058.564087,100.164803 1048.613647,98.299431 1038.922852,96.077583 
	C1026.120361,93.142334 1013.149963,90.934044 1000.364380,87.933266 
	C991.513123,85.855881 983.366455,82.047607 977.291321,74.862389 
	C961.898499,56.657078 967.945251,25.138849 988.922974,13.816681 
	C999.896606,7.893960 1011.816528,5.750567 1024.026245,5.259328 
	C1047.717529,4.306158 1070.352295,8.965381 1091.826782,19.087452 
	C1092.874878,19.581476 1093.881226,20.169161 1094.881592,20.756456 
	C1095.154785,20.916882 1095.335571,21.235043 1095.660400,21.592831 
	C1093.532349,25.289396 1091.382324,29.023993 1089.073730,33.091064 
z"/>
<path fill="#000" opacity="1.000000" stroke="none" 
	d="
M1512.800537,34.065567 
	C1498.449707,31.004456 1484.428955,29.494120 1470.238892,31.970131 
	C1467.634766,32.424526 1465.021362,33.113644 1462.567627,34.086258 
	C1455.926392,36.718597 1452.659912,41.784988 1452.719849,48.784187 
	C1452.778931,55.681042 1456.299316,60.453659 1462.655762,62.172646 
	C1473.715698,65.163612 1484.991089,67.352287 1496.159302,69.949593 
	C1507.493408,72.585449 1519.017822,74.642982 1530.082764,78.142914 
	C1548.748291,84.047012 1558.752075,97.535141 1558.864990,115.140671 
	C1558.984619,133.762421 1548.725464,148.770370 1530.622070,155.126617 
	C1509.573853,162.516846 1488.011963,161.600769 1466.474243,157.516785 
	C1450.468506,154.481796 1435.565796,148.549728 1421.905151,139.718201 
	C1426.402222,132.633438 1430.759277,125.769249 1434.727051,119.518288 
	C1445.915283,123.559464 1456.591553,128.150589 1467.685181,131.245514 
	C1483.227295,135.581589 1499.162354,136.804291 1515.122192,133.037857 
	C1517.850586,132.393997 1520.550659,131.415283 1523.087524,130.217834 
	C1528.970825,127.440773 1531.698608,122.524910 1531.594727,116.133316 
	C1531.487671,109.548584 1528.129639,104.717354 1521.907593,103.060921 
	C1509.225464,99.684753 1496.356567,97.014610 1483.584351,93.971115 
	C1472.752686,91.390045 1461.731812,89.353752 1451.182861,85.893143 
	C1435.173340,80.641167 1426.363037,69.262634 1425.710327,52.051151 
	C1425.042969,34.447727 1431.578613,20.902172 1447.736572,12.802861 
	C1458.066528,7.624839 1469.244995,5.681388 1480.622681,5.385977 
	C1504.078979,4.776954 1526.694702,8.769270 1547.987427,19.040915 
	C1549.158081,19.605646 1550.254272,20.324814 1551.658936,21.128838 
	C1547.527710,28.519726 1543.511475,35.704639 1539.777710,42.384266 
	C1530.592896,39.532921 1521.902344,36.835007 1512.800537,34.065567 
z"/>
<path fill="#000" opacity="1.000000" stroke="none" 
	d="
M1173.664062,22.653908 
	C1166.809570,35.421223 1159.382935,47.537491 1153.666504,60.413013 
	C1145.843872,78.032097 1146.280273,95.765739 1157.399048,112.277084 
	C1169.056885,129.588715 1189.126343,137.211243 1209.897705,132.503357 
	C1229.921265,127.964943 1244.858154,111.939178 1247.999390,91.624268 
	C1253.170288,58.183620 1227.586914,30.495275 1193.808594,33.003357 
	C1191.921875,33.143448 1190.053833,33.534275 1187.542114,33.901138 
	C1192.648315,24.881247 1197.367798,16.342979 1202.370850,7.974263 
	C1202.963867,6.982236 1205.152344,6.387776 1206.527954,6.500778 
	C1244.568481,9.625510 1274.756104,42.011894 1276.370972,81.298698 
	C1277.905273,118.628159 1250.104614,153.106171 1212.952148,158.941345 
	C1180.651611,164.014450 1153.327393,154.640518 1134.136841,127.348373 
	C1106.175415,87.582596 1121.067505,23.747610 1176.346191,9.619522 
	C1178.061768,9.181050 1179.857788,9.057527 1182.208618,8.696106 
	C1179.177368,13.647005 1176.515869,17.994160 1173.664062,22.653908 
z"/>
<path fill="#000" opacity="1.000000" stroke="none" 
	d="
M312.059631,91.964500 
	C303.289642,74.224350 294.657379,56.831032 285.515594,38.411087 
	C284.181763,40.894779 283.372894,42.282829 282.671936,43.723415 
	C264.773804,80.507858 246.857513,117.283562 229.064453,154.118805 
	C227.874695,156.581833 226.631195,157.550568 223.849258,157.484833 
	C215.402191,157.285156 206.947388,157.412521 197.628967,157.412521 
	C202.868561,146.607529 207.659912,136.603699 212.556259,126.651550 
	C231.347824,88.456528 250.205658,50.294037 268.921600,12.062040 
	C270.365570,9.112401 271.986847,7.938240 275.344452,8.071115 
	C282.331177,8.347615 289.344971,8.289808 296.333496,8.012660 
	C299.485809,7.887647 300.924225,9.015618 302.295532,11.803025 
	C324.456024,56.848579 346.751892,101.827545 369.014038,146.823105 
	C370.688416,150.207275 372.339874,153.602768 374.321930,157.645676 
	C364.528320,157.645676 355.453491,157.727951 346.384338,157.538315 
	C345.289154,157.515411 343.797577,156.252869 343.215546,155.173492 
	C339.505676,148.293549 335.751099,141.415909 332.538818,134.299377 
	C331.099731,131.111267 329.287292,130.395752 326.091125,130.444885 
	C312.929626,130.647141 299.761444,130.745087 286.602997,130.495682 
	C284.347595,130.452927 281.514099,129.079926 279.998352,127.382973 
	C273.619049,120.240990 267.638184,112.743134 260.762878,104.475250 
	C280.487274,104.475250 299.040527,104.475250 318.315155,104.475250 
	C316.033691,99.939064 314.115540,96.125198 312.059631,91.964500 
z"/>
<path fill="#000" opacity="1.000000" stroke="none" 
	d="
M786.152466,35.840107 
	C792.978271,44.460030 799.590881,52.796089 806.521912,61.533550 
	C811.042236,56.153297 815.375732,51.131870 819.559143,45.988331 
	C828.912415,34.488445 838.092224,22.845184 847.605286,11.480117 
	C849.044250,9.760997 851.861572,8.365376 854.094238,8.284613 
	C863.697815,7.937220 873.321167,8.136243 884.435425,8.136243 
	C864.202759,33.042938 845.042236,56.629700 825.494568,80.693100 
	C846.002747,106.152412 866.431396,131.513031 887.485962,157.650635 
	C881.193970,157.650635 875.389648,156.936554 869.828796,157.796524 
	C857.550232,159.695374 849.763245,154.807266 842.603210,144.857407 
	C831.542175,129.486511 818.801575,115.324265 806.425232,100.224709 
	C802.557556,104.874275 798.897400,109.122017 795.403748,113.502609 
	C784.501221,127.172928 773.749817,140.965500 762.688354,154.505295 
	C761.274780,156.235703 758.403137,157.602692 756.156067,157.681305 
	C746.359070,158.024063 736.543274,157.828629 725.139709,157.828629 
	C746.514404,131.737015 767.091431,106.619133 787.949280,81.158371 
	C768.473450,57.034550 749.070190,33.000618 728.874207,7.984692 
	C740.870911,7.984692 751.773010,7.890688 762.668762,8.110876 
	C763.943787,8.136642 765.438293,9.690329 766.398804,10.883585 
	C772.976807,19.055889 779.439575,27.321005 786.152466,35.840107 
z"/>
<path fill="#000" opacity="1.000000" stroke="none" 
	d="
M436.981567,97.000000 
	C436.967682,117.147621 436.955322,136.795242 436.924408,156.442841 
	C436.923950,156.736115 436.692963,157.029007 436.478821,157.537720 
	C427.654419,157.537720 418.752380,157.537720 409.488159,157.537720 
	C409.488159,116.723610 409.488159,76.154396 409.488159,35.137077 
	C391.581726,35.137077 374.025726,35.137077 356.176208,35.137077 
	C356.176208,26.120197 356.176208,17.543425 356.176208,8.505436 
	C400.802277,8.505436 445.499207,8.505436 490.596222,8.505436 
	C490.596222,17.019701 490.596222,25.734280 490.596222,34.854240 
	C472.945923,34.854240 455.219849,34.854240 436.981506,34.854240 
	C436.981506,55.666954 436.981506,76.083473 436.981567,97.000000 
z"/>
<path fill="#000" opacity="1.000000" stroke="none" 
	d="
M1399.983521,130.795776 
	C1404.103271,130.798035 1407.726929,130.798035 1411.465576,130.798035 
	C1411.465576,139.875839 1411.465576,148.451004 1411.465576,157.369064 
	C1409.877075,157.448334 1408.600586,157.564987 1407.323853,157.567871 
	C1384.334839,157.619720 1361.340942,157.939163 1338.359985,157.526398 
	C1331.520508,157.403534 1324.266602,156.315567 1317.997192,153.737305 
	C1306.645020,149.068787 1300.115723,139.838379 1299.896118,127.308060 
	C1299.493652,104.327293 1299.542847,81.338158 1299.464722,58.352299 
	C1299.409180,42.051041 1299.453857,25.749435 1299.453857,9.080296 
	C1308.582764,9.080296 1317.472046,9.080296 1326.938599,9.080296 
	C1326.938599,10.799539 1326.936890,12.574432 1326.938843,14.349322 
	C1326.976562,47.667091 1326.927246,80.985291 1327.091675,114.302437 
	C1327.168579,129.891876 1327.749634,130.243561 1343.015503,130.334061 
	C1361.839722,130.445663 1380.663452,130.636780 1399.983521,130.795776 
z"/>
<path fill="#000" opacity="1.000000" stroke="none" 
	d="
M678.750122,73.999580 
	C678.753418,52.048607 678.753418,30.597631 678.753418,8.762117 
	C687.887451,8.762117 696.759399,8.762117 705.903625,8.762117 
	C705.903625,58.326077 705.903625,107.826698 705.903625,157.478638 
	C696.842346,157.478638 688.096252,157.478638 678.746765,157.478638 
	C678.746765,129.647339 678.746765,102.073456 678.750122,73.999580 
z"/>
</svg>